<svg xmlns:dc="http://purl.org/dc/elements/1.1/" xmlns:cc="http://creativecommons.org/ns#" xmlns:rdf="http://www.w3.org/1999/02/22-rdf-syntax-ns#" xmlns:svg="http://www.w3.org/2000/svg" xmlns="http://www.w3.org/2000/svg" version="1.1" viewBox="0 0 100 125" xml:space="preserve" x="0px" y="0px"><path d="M 30.40625,5 29.125,8.9375 c -2.083367,0.5028134 -4.033598,1.349888 -5.8125,2.4375 L 19.59375,9.46875 14.625,14.4375 16.5,18.15625 c -1.087523,1.778737 -1.903691,3.729118 -2.40625,5.8125 l -3.9375,1.28125 0,7.03125 3.9375,1.28125 c 0.502723,2.083382 1.318623,4.033613 2.40625,5.8125 l -1.875,3.71875 4.96875,4.96875 3.71875,-1.875 c 1.778798,1.087462 3.729282,1.903436 5.8125,2.40625 l 1.28125,3.9375 7.03125,0 1.28125,-3.9375 c 2.083935,-0.502814 4.033165,-1.318489 5.8125,-2.40625 L 48.25,48.0625 53.21875,43.09375 51.3125,39.375 c 1.087702,-1.779036 1.934731,-3.729118 2.4375,-5.8125 l 3.9375,-1.28125 0,-7.03125 -3.9375,-1.28125 c -0.502724,-2.084129 -1.349455,-4.033165 -2.4375,-5.8125 L 53.21875,14.4375 48.25,9.46875 44.53125,11.375 C 42.75181,10.28709 40.80282,9.440164 38.71875,8.9375 L 37.4375,5 30.40625,5 z m 3.5,9.96875 c 1.882362,0 3.677871,0.379289 5.3125,1.0625 l -3.3125,5.78125 c -0.632003,-0.181592 -1.3121,-0.28125 -2,-0.28125 -0.688975,0 -1.335865,0.09922 -1.96875,0.28125 l -3.34375,-5.78125 c 1.633598,-0.682016 3.431617,-1.0625 5.3125,-1.0625 z m -8.34375,2.84375 3.3125,5.75 c -0.953538,0.924985 -1.664606,2.113639 -2,3.4375 l -6.625,0 c 0.478008,-3.739515 2.45862,-7.005705 5.3125,-9.1875 z m 16.71875,0 c 2.851954,2.181496 4.834686,5.449478 5.3125,9.1875 l -6.65625,0 c -0.335378,-1.324011 -1.015226,-2.512515 -1.96875,-3.4375 l 3.3125,-5.75 z m 16.28125,2.65625 c 0.879393,2.608446 1.34375,5.376223 1.34375,8.28125 0,14.352506 -11.647449,26 -26,26 C 31.139358,54.75 28.501014,54.332287 26,53.53125 28.049229,60.449824 32.625416,66.258986 35.0625,73 36.32382,76.488781 35.209655,80.289437 33.96875,83.625 33.162606,85.79216 32.078443,91.46612 31.3125,95 l 37.125,0 c -0.162179,-2.565438 -0.377174,-6.981599 0.6875,-7.09375 3.554727,-0.374683 7.508035,0.08782 10.625,-2.03125 2.724033,-1.851913 3.495144,-5.405056 3.28125,-8.53125 -0.03972,-0.580916 -0.385746,-1.229825 0.21875,-1.71875 0.981419,-0.79372 1.124674,-2.115625 0.5625,-3.59375 1.274117,-0.917369 1.908023,-3.005552 0.90625,-4.34375 -0.154234,-0.206083 -0.600042,-0.649906 -0.03125,-0.71875 2.058399,-0.249092 4.452051,-1.320335 5.03125,-3.53125 0.553602,-2.11325 -1.009922,-3.980703 -2.0625,-5.65625 -1.365797,-2.174178 -3.638662,-3.847902 -4.34375,-6.34375 -0.545449,-1.930761 0.383874,-3.951374 0.125,-5.96875 -1.73885,-13.550872 -9.36244,-23.76813 -24.875,-25 z m -24.65625,4.5625 c 2.093881,0 3.78125,1.624765 3.78125,3.71875 0,2.093686 -1.687369,3.78125 -3.78125,3.78125 -2.093896,0 -3.75,-1.687564 -3.75,-3.78125 0,-2.093985 1.656104,-3.71875 3.75,-3.71875 z m -13.65625,5.5 6.625,0 c 0.335065,1.325055 1.045745,2.511917 2,3.4375 l -3.3125,5.75 C 22.707799,37.536943 20.728083,34.271661 20.25,30.53125 z m 20.6875,0 6.65625,0 c -0.477904,3.738918 -2.45971,7.006004 -5.3125,9.1875 l -3.3125,-5.75 c 0.95427,-0.925583 1.633671,-2.112445 1.96875,-3.4375 z m -9,5.21875 c 0.632019,0.181443 1.28082,0.28125 1.96875,0.28125 0.6879,0 1.367997,-0.09981 2,-0.28125 l 3.3125,5.75 c -1.633882,0.682464 -3.431183,1.0625 -5.3125,1.0625 -1.879853,0 -3.648399,-0.381081 -5.28125,-1.0625 l 3.3125,-5.75 z" style="" fill="#2c9dde" fill-opacity="1" fill-rule="evenodd" stroke="none"/></svg>
