<svg xmlns="http://www.w3.org/2000/svg" fill="#fe6161" xmlns:xlink="http://www.w3.org/1999/xlink" version="1.1" x="0px" y="0px" viewBox="0 0 100 125" enable-background="new 0 0 100 100" xml:space="preserve"><g><g><path fill="#fd5252" d="M83.9,50.9c0.6-1.1,0.9-2.2,0.9-3.5c0-1.7-0.6-3.3-1.7-4.6c0.5-1,0.8-2.1,0.8-3.3c0-1.3-0.4-2.6-1-3.7    c0.1-0.5,0.2-1,0.2-1.6c0-2.2-1-4.2-2.7-5.5c0.1-0.5,0.2-1,0.2-1.4c0-2.1-1-4.1-2.6-5.4c-0.1-2.9-2-5.5-4.7-6.4    c-1-3-3.9-5-7.1-4.7c-1.3-1.7-3.2-2.6-5.4-2.6c-0.7,0-1.5,0.1-2.2,0.4c-0.7-0.2-1.4-0.4-2.2-0.4c-2.7,0-5.2,2.6-6.2,5.1    c-0.1,0-0.1,0.1-0.2,0.1c-0.1,0-0.1-0.1-0.2-0.1c-1.1-2.5-3.5-5.1-6.2-5.1c-0.7,0-1.5,0.1-2.2,0.4c-0.7-0.2-1.4-0.4-2.2-0.4    c-2.1,0-4.1,1-5.4,2.6c-3.2-0.3-6.1,1.7-7.1,4.7c-2.7,0.9-4.6,3.5-4.7,6.4c-1.6,1.3-2.6,3.3-2.6,5.4c0,0.5,0.1,1,0.2,1.4    c-1.7,1.3-2.7,3.3-2.7,5.5c0,0.5,0.1,1.1,0.2,1.6c-0.7,1.1-1,2.4-1,3.7c0,1.2,0.3,2.3,0.8,3.3c-1.1,1.3-1.7,2.9-1.7,4.6    c0,1.2,0.3,2.4,0.9,3.5c-0.6,1.1-0.9,2.2-0.9,3.5c0,1.3,0.4,2.6,1,3.7c-0.1,0.5-0.2,1-0.2,1.6c0,1.4,0.4,2.8,1.2,3.9    c-0.2,0.7-0.4,1.4-0.4,2.2c0,2.2,1,4.2,2.7,5.5c0.2,1,0.5,2,1.1,2.8c-0.2,0.7-0.4,1.4-0.4,2.2c0,2.6,1.4,4.9,3.7,6.1    c0.8,3,3.4,5.1,6.4,5.1c1,1.3,2.5,2.2,4.1,2.5c1.3,1.2,2.9,1.9,4.7,1.9c1.3,0,2.5-0.4,3.6-1.1c0.5,0.1,1,0.2,1.5,0.2    c2.1,0,4.1-2,5.4-3.6c0.2,0,0.3,0,0.5,0c1.3,1.7,3.2,3.6,5.4,3.6c0.5,0,1-0.1,1.5-0.2c1.1,0.7,2.3,1.1,3.6,1.1    c1.8,0,3.4-0.7,4.7-1.9c1.6-0.3,3.1-1.2,4.1-2.5c3.1-0.1,5.7-2.2,6.4-5.1c2.3-1.2,3.7-3.5,3.7-6.1c0-0.7-0.1-1.5-0.4-2.2    c0.6-0.8,1-1.8,1.1-2.8c1.7-1.3,2.7-3.3,2.7-5.5c0-0.7-0.1-1.5-0.4-2.2c0.8-1.2,1.2-2.5,1.2-3.9c0-0.5-0.1-1.1-0.2-1.6    c0.7-1.1,1-2.4,1-3.7C84.8,53.1,84.5,51.9,83.9,50.9z M81.4,51.6c0.6,0.8,0.9,1.7,0.9,2.7c0,1-0.3,1.9-0.9,2.7L81,57.6l0.2,0.6    c0.2,0.5,0.2,0.9,0.2,1.4c0,1.1-0.4,2.1-1.1,2.9l-0.5,0.6l0.3,0.7c0.3,0.6,0.4,1.2,0.4,1.9c0,1.5-0.8,2.9-2,3.7l-0.5,0.3l0,0.6    c-0.1,1-0.4,1.9-1.1,2.6l-0.5,0.6l0.3,0.7c0.3,0.6,0.4,1.2,0.4,1.9c0,1.8-1.1,3.4-2.7,4.1l-0.7,0.3l-0.1,0.7    c-0.3,2.2-2.1,3.7-4.3,3.7c-0.1,0-0.2,0-0.3,0l-0.8-0.1l-0.4,0.6c-0.7,1.1-1.9,1.9-3.2,2l-0.5,0.1l-0.3,0.3    c-0.8,0.9-2,1.4-3.2,1.4c-1,0-1.9-0.3-2.6-0.9L57.6,88L57,88.2c-1.9,0.6-4.5-1.4-5.6-3v-1.9v-2.5c0,0,0.1-0.1,0.1-0.1l6.9-6.9    l7.4,0c0.2,0.4,0.4,0.8,0.8,1.2c0.6,0.6,1.5,1,2.4,1c0.9,0,1.8-0.4,2.4-1c0.6-0.6,1-1.5,1-2.4c0-0.9-0.4-1.8-1-2.4    c-0.6-0.6-1.5-1-2.4-1c-1.5,0-2.7,0.9-3.2,2.2l-7.7,0c-0.4-0.1-0.8,0-1,0.3l-5.8,5.8v-8.1c0.1-0.1,0.2-0.1,0.3-0.2l7.7-7.7l12.9,0    c0.2,0.4,0.4,0.8,0.8,1.2c0.6,0.6,1.5,1,2.4,1c0.9,0,1.8-0.4,2.4-1c0.6-0.6,1-1.5,1-2.4c0-0.9-0.4-1.8-1-2.4c-0.6-0.6-1.5-1-2.4-1    c-1.5,0-2.7,0.9-3.2,2.2l-10.5,0l6.8-6.8c0.3-0.3,0.4-0.6,0.3-0.9c0-0.1,0-0.1,0-0.2v-6.2l5.1-5.1c0.4,0.2,0.9,0.3,1.4,0.3    c0.9,0,1.8-0.4,2.4-1c0.6-0.6,1-1.5,1-2.4c0-0.9-0.4-1.8-1-2.4c-0.6-0.6-1.5-1-2.4-1c-0.9,0-1.8,0.4-2.4,1c-1,1-1.3,2.6-0.7,3.8    l-3.4,3.4V30.4c0,0,0,0,0,0c0.4-0.2,0.8-0.4,1.1-0.7c0.6-0.6,1-1.5,1-2.4c0-0.9-0.4-1.8-1-2.4c-0.6-0.6-1.5-1-2.4-1    c-0.9,0-1.8,0.4-2.4,1c-0.6,0.6-1,1.5-1,2.4c0,1.4,0.9,2.6,2.1,3.1c0,0,0,0,0,0.1v11.1L63,38.1c0.6-1.3,0.4-2.8-0.7-3.8    c-0.6-0.6-1.5-1-2.4-1c-0.9,0-1.8,0.4-2.4,1c-0.6,0.6-1,1.5-1,2.4c0,0.9,0.4,1.8,1,2.4c0.6,0.6,1.5,1,2.4,1c0.5,0,0.9-0.1,1.4-0.3    l5.1,5.1V51l-6.7,6.7l0-5.4c0.4-0.2,0.8-0.4,1.2-0.8c0.6-0.6,1-1.5,1-2.4c0-0.9-0.4-1.8-1-2.4c-0.6-0.6-1.5-1-2.4-1    c-0.9,0-1.8,0.4-2.4,1c-0.6,0.6-1,1.5-1,2.4c0,1.5,0.9,2.7,2.2,3.2l0,7.8L51.4,66v-8V29.8l5.1-5.1c0.4,0.2,0.9,0.3,1.4,0.3    c0.9,0,1.8-0.4,2.4-1c0.6-0.6,1-1.5,1-2.4s-0.4-1.8-1-2.4c-0.6-0.6-1.5-1-2.4-1c-0.9,0-1.8,0.4-2.4,1c-1,1-1.3,2.6-0.7,3.8    l-4.7,4.7L45.4,23c0.6-1.3,0.4-2.8-0.7-3.8c-0.6-0.6-1.5-1-2.4-1c-0.9,0-1.8,0.4-2.4,1c-0.6,0.6-1,1.5-1,2.4s0.4,1.8,1,2.4    c0.6,0.6,1.5,1,2.4,1c0.5,0,0.9-0.1,1.4-0.3l5.1,5.1v25.6l-8.7-8.7l0-7.3c0.4-0.2,0.8-0.4,1.2-0.8c0.6-0.6,1-1.5,1-2.4    c0-0.9-0.4-1.8-1-2.4c-0.6-0.6-1.5-1-2.4-1c-0.9,0-1.8,0.4-2.4,1c-0.6,0.6-1,1.5-1,2.4c0,1.5,0.9,2.7,2.2,3.2l0,4.9l-7.1-7l0-7    c0.4-0.2,0.8-0.4,1.2-0.8c0.6-0.6,1-1.5,1-2.4c0-0.9-0.4-1.8-1-2.4c-0.6-0.6-1.5-1-2.4-1c-0.9,0-1.8,0.4-2.4,1    c-0.6,0.6-1,1.5-1,2.4c0,1.5,0.9,2.7,2.2,3.2l0,7.8c0,0.5,0.3,0.9,0.7,1.1l6.9,6.9l-4.7,0c-0.5-1.3-1.7-2.2-3.2-2.2    c-0.9,0-1.8,0.4-2.4,1c-0.6,0.6-1,1.5-1,2.4c0,0.9,0.4,1.8,1,2.4c0.6,0.6,1.5,1,2.4,1c0.9,0,1.8-0.4,2.4-1    c0.3-0.3,0.6-0.7,0.8-1.2l7.2,0L48.8,59v18.4l-5.4-5.4l0-7.4c0.4-0.2,0.8-0.4,1.2-0.8c0.6-0.6,1-1.5,1-2.4c0-0.9-0.4-1.8-1-2.4    c-0.6-0.6-1.5-1-2.4-1c-0.9,0-1.8,0.4-2.4,1c-0.6,0.6-1,1.5-1,2.4c0,1.5,0.9,2.7,2.2,3.2l0,4.9l-8.6-8.5c0.2-0.4,0.3-0.9,0.3-1.4    c0-1.9-1.5-3.4-3.4-3.4c-1.9,0-3.4,1.5-3.4,3.4c0,1.9,1.5,3.4,3.4,3.4c0.5,0,1-0.1,1.4-0.3l8.6,8.5l-4.9,0    c-0.5-1.3-1.7-2.2-3.2-2.2c-0.9,0-1.8,0.4-2.4,1c-0.6,0.6-1,1.5-1,2.4c0,0.9,0.4,1.8,1,2.4c0.6,0.6,1.5,1,2.4,1    c0.9,0,1.8-0.4,2.4-1c0.3-0.3,0.6-0.7,0.8-1.2l7.4,0l7.1,7.1v2.4v1.9c-1,1.7-3.8,3.7-5.8,3L42.4,88l-0.5,0.4    c-0.8,0.6-1.7,0.9-2.6,0.9c-1.2,0-2.3-0.5-3.2-1.4l-0.3-0.3l-0.5-0.1c-1.3-0.1-2.5-0.9-3.2-2l-0.4-0.6L31,84.9c-0.1,0-0.2,0-0.3,0    c-2.1,0-3.9-1.6-4.3-3.7l-0.1-0.7l-0.7-0.3c-1.7-0.7-2.7-2.3-2.7-4.1c0-0.6,0.1-1.3,0.4-1.9l0.3-0.7L23.1,73    c-0.6-0.7-1-1.6-1.1-2.6l0-0.6l-0.5-0.3c-1.3-0.8-2-2.2-2-3.7c0-0.6,0.1-1.3,0.4-1.9l0.3-0.7l-0.5-0.6c-0.7-0.8-1.1-1.8-1.1-2.9    c0-0.5,0.1-0.9,0.2-1.4l0.2-0.6L18.6,57c-0.6-0.8-0.9-1.7-0.9-2.7c0-1,0.3-1.9,0.9-2.7l0.6-0.8l-0.6-0.8c-0.6-0.8-0.9-1.7-0.9-2.7    c0-1.3,0.6-2.6,1.6-3.4l0.9-0.8l-0.7-1c-0.6-0.8-0.9-1.7-0.9-2.7c0-1,0.3-1.9,0.9-2.7l0.4-0.5l-0.2-0.6c-0.2-0.5-0.2-0.9-0.2-1.4    c0-1.6,0.9-3.1,2.3-3.9l0.9-0.5l-0.4-1c-0.2-0.5-0.3-1-0.3-1.6c0-1.5,0.8-2.9,2-3.7l0.6-0.4l-0.1-0.7c0-0.1,0-0.2,0-0.3    c0-2.1,1.4-3.9,3.4-4.3l0.8-0.2l0.2-0.8c0.5-2.3,2.8-3.9,5.2-3.4l0.9,0.2l0.5-0.8c0.8-1.3,2.2-2.1,3.7-2.1c0.6,0,1.1,0.1,1.7,0.3    l0.5,0.2l0.5-0.2c0.5-0.2,1.1-0.3,1.7-0.3c1.8,0,3.5,2.2,4.1,4l0.2,0.6l0.6,0.2c0.3,0.1,0.6,0.3,0.9,0.4l0.7,0.4l0.7-0.4    c0.3-0.2,0.6-0.3,0.9-0.4l0.6-0.2l0.2-0.6c0.6-1.8,2.3-4,4.1-4c0.6,0,1.1,0.1,1.7,0.3l0.5,0.2l0.5-0.2c0.5-0.2,1.1-0.3,1.7-0.3    c1.5,0,2.9,0.8,3.7,2.1l0.5,0.8l0.9-0.2c2.5-0.6,4.7,1.1,5.2,3.4l0.2,0.8l0.8,0.2c2,0.4,3.4,2.2,3.4,4.3c0,0.1,0,0.2,0,0.3    l-0.1,0.7l0.6,0.4c1.3,0.8,2,2.2,2,3.7c0,0.5-0.1,1-0.3,1.6l-0.4,1l0.9,0.5c1.4,0.8,2.3,2.3,2.3,3.9c0,0.5-0.1,0.9-0.2,1.4    l-0.2,0.6l0.4,0.5c0.6,0.8,0.9,1.7,0.9,2.7c0,1-0.3,1.9-0.9,2.7l-0.7,1l0.9,0.8c1,0.8,1.6,2.1,1.6,3.4c0,1-0.3,1.9-0.9,2.7    l-0.6,0.8L81.4,51.6z M67.6,72.5c0-0.8,0.7-1.5,1.5-1.5c0.4,0,0.8,0.2,1,0.4c0.3,0.3,0.4,0.6,0.4,1c0,0.8-0.7,1.5-1.5,1.5    c-0.4,0-0.8-0.2-1-0.4S67.6,73,67.6,72.5z M56.9,49.2c0-0.4,0.2-0.8,0.4-1c0.3-0.3,0.6-0.4,1-0.4c0.8,0,1.5,0.7,1.5,1.5    c0,0.4-0.2,0.8-0.4,1c-0.3,0.3-0.6,0.4-1,0.4C57.6,50.7,56.9,50,56.9,49.2z M74,60.2c0-0.8,0.7-1.5,1.5-1.5c0.4,0,0.8,0.2,1,0.4    c0.3,0.3,0.4,0.6,0.4,1c0,0.8-0.7,1.5-1.5,1.5c-0.4,0-0.8-0.2-1-0.4C74.1,61,74,60.6,74,60.2z M66.2,27.2c0-0.4,0.2-0.8,0.4-1    s0.6-0.4,1-0.4c0.8,0,1.5,0.7,1.5,1.5c0,0.4-0.2,0.8-0.4,1c-0.3,0.3-0.6,0.4-1,0.4C66.8,28.7,66.2,28,66.2,27.2z M74.4,35.6    c0.3-0.3,0.7-0.4,1-0.4c0.4,0,0.8,0.1,1,0.4c0.6,0.6,0.6,1.5,0,2.1c-0.3,0.3-0.7,0.4-1,0.4c-0.4,0-0.8-0.1-1-0.4    C73.8,37.1,73.8,36.2,74.4,35.6z M60.9,37.7c-0.3,0.3-0.7,0.4-1,0.4c-0.4,0-0.8-0.1-1-0.4c-0.6-0.6-0.6-1.5,0-2.1    c0.3-0.3,0.7-0.4,1-0.4c0.4,0,0.8,0.1,1,0.4C61.5,36.2,61.5,37.1,60.9,37.7z M56.8,20.5c0.3-0.3,0.7-0.4,1-0.4    c0.4,0,0.8,0.1,1,0.4c0.6,0.6,0.6,1.5,0,2.1c-0.3,0.3-0.7,0.4-1,0.4c-0.4,0-0.8-0.1-1-0.4C56.3,22,56.3,21.1,56.8,20.5z     M43.3,22.6c-0.3,0.3-0.7,0.4-1,0.4c-0.4,0-0.8-0.1-1-0.4c-0.6-0.6-0.6-1.5,0-2.1c0.3-0.3,0.7-0.4,1-0.4c0.4,0,0.8,0.1,1,0.4    C43.9,21.1,43.9,22,43.3,22.6z M39.8,37.3c-0.3,0.3-0.6,0.4-1,0.4c-0.8,0-1.5-0.7-1.5-1.5c0-0.4,0.2-0.8,0.4-1    c0.3-0.3,0.6-0.4,1-0.4c0.8,0,1.5,0.7,1.5,1.5C40.3,36.7,40.1,37,39.8,37.3z M30.3,28.1c-0.3,0.3-0.6,0.4-1,0.4    c-0.8,0-1.5-0.7-1.5-1.5c0-0.4,0.2-0.8,0.4-1s0.6-0.4,1-0.4c0.8,0,1.5,0.7,1.5,1.5C30.8,27.5,30.6,27.9,30.3,28.1z M29.3,47.3    c0,0.4-0.2,0.8-0.4,1c-0.3,0.3-0.6,0.4-1,0.4c-0.8,0-1.5-0.7-1.5-1.5c0-0.4,0.2-0.8,0.4-1c0.3-0.3,0.6-0.4,1-0.4    C28.6,45.8,29.3,46.4,29.3,47.3z M43.2,62.6c-0.3,0.3-0.6,0.4-1,0.4c-0.8,0-1.5-0.7-1.5-1.5c0-0.4,0.2-0.8,0.4-1    c0.3-0.3,0.6-0.4,1-0.4c0.8,0,1.5,0.7,1.5,1.5C43.6,62,43.5,62.3,43.2,62.6z M30.8,59.8c0,0.8-0.7,1.5-1.5,1.5    c-0.8,0-1.5-0.7-1.5-1.5c0-0.8,0.7-1.5,1.5-1.5C30.1,58.3,30.8,59,30.8,59.8z M32.6,72.6c0,0.4-0.2,0.8-0.4,1    c-0.3,0.3-0.6,0.4-1,0.4c-0.8,0-1.5-0.7-1.5-1.5c0-0.4,0.2-0.8,0.4-1c0.3-0.3,0.6-0.4,1-0.4C32,71.1,32.6,71.8,32.6,72.6z"/></g></g></svg>
