<svg xmlns="http://www.w3.org/2000/svg" xmlns:xlink="http://www.w3.org/1999/xlink" preserveAspectRatio="xMidYMid" width="762" height="331" viewBox="0 0 762 331">
  <defs>
    <style>
      .cls-1, .clsss-2, .cls-4 {
        fill: #fff;
      }

      .clsss-2 {
        fill-rule: evenodd;
      }

      .cls-3, .cls-4 {
        font-size: 20px;
      }

      .cls-4, .clsss-6 {
        font-family: "Tahoma";
      }

      .cls-5, .clsss-6 {
        font-size: 15px;
      }
    </style>
  </defs>
  <g>
    <g>
      <circle cx="138.5" cy="68.5" r="19.5" class="cls-1"/>
      <circle cx="138.5" cy="116.5" r="19.5" class="cls-1"/>
      <circle cx="138.5" cy="164.5" r="19.5" class="cls-1"/>
      <circle cx="138.5" cy="213.5" r="19.5" class="cls-1"/>
      <circle cx="138.5" cy="262.5" r="19.5" class="cls-1"/>
    </g>
    <g>
      <circle cx="237.5" cy="19.5" r="19.5" class="cls-1"/>
      <circle cx="237.5" cy="67.5" r="19.5" class="cls-1"/>
      <circle cx="237.5" cy="115.5" r="19.5" class="cls-1"/>
      <circle cx="237.5" cy="164.5" r="19.5" class="cls-1"/>
      <circle cx="237.5" cy="213.5" r="19.5" class="cls-1"/>
      <path d="M237.500,282.000 C226.730,282.000 218.000,273.270 218.000,262.500 C218.000,251.730 226.730,243.000 237.500,243.000 C248.270,243.000 257.000,251.730 257.000,262.500 C257.000,273.270 248.270,282.000 237.500,282.000 ZM237.500,292.000 C248.270,292.000 257.000,300.730 257.000,311.500 C257.000,322.270 248.270,331.000 237.500,331.000 C226.730,331.000 218.000,322.270 218.000,311.500 C218.000,300.730 226.730,292.000 237.500,292.000 Z" class="clsss-2"/>
    </g>
    <g>
      <circle cx="338.5" cy="68.5" r="19.5" class="cls-1"/>
      <circle cx="338.5" cy="116.5" r="19.5" class="cls-1"/>
      <circle cx="338.5" cy="164.5" r="19.5" class="cls-1"/>
      <circle cx="338.5" cy="213.5" r="19.5" class="cls-1"/>
      <circle cx="338.5" cy="262.5" r="19.5" class="cls-1"/>
    </g>
    <g>
      <circle cx="433.5" cy="116.5" r="19.5" class="cls-1"/>
      <circle cx="433.5" cy="164.5" r="19.5" class="cls-1"/>
      <circle cx="433.5" cy="213.5" r="19.5" class="cls-1"/>
    </g>
    <g>
      <path d="M157.261,62.426 L156.739,61.574 L218.739,23.574 L219.261,24.426 L157.261,62.426 " class="clsss-2"/>
      <path d="M156.960,62.498 L157.040,61.502 L219.040,66.502 L218.960,67.498 L156.960,62.498 " class="clsss-2"/>
      <path d="M155.679,63.383 L156.321,62.617 L218.321,114.617 L217.679,115.383 L155.679,63.383 " class="clsss-2"/>
      <path d="M156.573,63.260 L157.427,62.740 L218.427,162.740 L217.573,163.260 L156.573,63.260 " class="clsss-2"/>
      <path d="M155.539,64.193 L156.461,63.807 L218.461,211.807 L217.539,212.193 L155.539,64.193 " class="clsss-2"/>
      <path d="M155.523,64.150 L156.477,63.850 L218.477,261.851 L217.523,262.149 L155.523,64.150 " class="clsss-2"/>
      <path d="M155.515,63.121 L156.485,62.879 L218.485,311.879 L217.515,312.121 L155.515,63.121 " class="clsss-2"/>
      <path d="M157.417,116.276 L156.583,115.724 L217.583,23.724 L218.417,24.276 L157.417,116.276 " class="clsss-2"/>
      <path d="M157.313,116.390 L156.687,115.610 L217.687,66.610 L218.313,67.390 L157.313,116.390 " class="clsss-2"/>
      <path d="M156.000,115.000 L156.000,114.000 L218.000,114.000 L218.000,115.000 L156.000,115.000 " class="clsss-2"/>
      <path d="M155.694,115.395 L156.306,114.605 L218.306,162.605 L217.694,163.395 L155.694,115.395 " class="clsss-2"/>
      <path d="M155.580,115.271 L156.420,114.729 L218.420,210.729 L217.580,211.271 L155.580,115.271 " class="clsss-2"/>
      <path d="M155.539,115.194 L156.461,114.806 L218.461,261.806 L217.539,262.194 L155.539,115.194 " class="clsss-2"/>
      <path d="M155.523,115.150 L156.477,114.850 L218.477,311.850 L217.523,312.150 L155.523,115.150 " class="clsss-2"/>
      <path d="M157.458,164.201 L156.542,163.799 L218.542,22.799 L219.458,23.201 L157.458,164.201 " class="clsss-2"/>
      <path d="M157.425,164.264 L156.575,163.736 L217.576,65.736 L218.424,66.264 L157.425,164.264 " class="clsss-2"/>
      <path d="M157.317,164.387 L156.683,163.613 L217.683,113.613 L218.317,114.387 L157.317,164.387 " class="clsss-2"/>
      <path d="M156.008,164.500 L155.992,163.500 L218.992,162.500 L219.008,163.500 L156.008,164.500 " class="clsss-2"/>
      <path d="M155.697,164.398 L156.303,163.602 L219.303,211.602 L218.697,212.398 L155.697,164.398 " class="clsss-2"/>
      <path d="M155.577,164.267 L156.423,163.733 L218.423,261.733 L217.578,262.267 L155.577,164.267 " class="clsss-2"/>
      <path d="M154.540,165.196 L155.460,164.804 L219.460,314.804 L218.540,315.196 L154.540,165.196 " class="clsss-2"/>
      <path d="M157.476,214.153 L156.524,213.847 L217.524,23.847 L218.476,24.153 L157.476,214.153 " class="clsss-2"/>
      <path d="M157.462,213.192 L156.538,212.808 L217.538,65.808 L218.462,66.192 L157.462,213.192 " class="clsss-2"/>
      <path d="M157.425,213.264 L156.575,212.736 L217.576,114.736 L218.424,115.264 L157.425,213.264 " class="clsss-2"/>
      <path d="M156.310,213.392 L155.690,212.608 L217.690,163.608 L218.310,164.392 L156.310,213.392 " class="clsss-2"/>
      <path d="M157.016,214.500 L156.984,213.500 L219.984,211.500 L220.016,212.500 L157.016,214.500 " class="clsss-2"/>
      <path d="M156.683,213.387 L157.317,212.613 L218.317,262.613 L217.683,263.387 L156.683,213.387 " class="clsss-2"/>
      <path d="M157.574,214.261 L158.426,213.739 L218.426,311.739 L217.574,312.261 L157.574,214.261 " class="clsss-2"/>
      <path d="M157.484,265.125 L156.516,264.875 L218.516,23.875 L219.484,24.125 L157.484,265.125 " class="clsss-2"/>
      <path d="M157.478,266.146 L156.522,265.853 L217.522,66.853 L218.478,67.146 L157.478,266.146 " class="clsss-2"/>
      <path d="M156.462,267.191 L155.538,266.808 L218.538,114.808 L219.462,115.191 L156.462,267.191 " class="clsss-2"/>
      <path d="M156.428,267.258 L155.572,266.742 L217.572,163.742 L218.428,164.258 L156.428,267.258 " class="clsss-2"/>
      <path d="M156.335,268.371 L155.665,267.629 L217.665,211.629 L218.335,212.371 L156.335,268.371 " class="clsss-2"/>
      <path d="M155.063,270.496 L154.937,269.504 L217.937,261.504 L218.063,262.496 L155.063,270.496 " class="clsss-2"/>
      <path d="M154.708,269.406 L155.292,268.594 L219.292,314.594 L218.708,315.406 L154.708,269.406 " class="clsss-2"/>
      <path d="M256.714,22.410 L257.286,21.590 L320.286,65.590 L319.714,66.410 L256.714,22.410 " class="clsss-2"/>
      <path d="M255.585,22.278 L256.415,21.722 L319.415,115.722 L318.585,116.278 L255.585,22.278 " class="clsss-2"/>
      <path d="M254.544,23.205 L255.456,22.795 L319.456,164.794 L318.544,165.206 L254.544,23.205 " class="clsss-2"/>
      <path d="M254.527,23.162 L255.473,22.838 L320.473,212.838 L319.527,213.162 L254.527,23.162 " class="clsss-2"/>
      <path d="M254.517,23.129 L255.483,22.871 L319.483,261.871 L318.517,262.129 L254.517,23.129 " class="clsss-2"/>
      <path d="M256.008,67.500 L255.992,66.500 L318.992,65.500 L319.008,66.500 L256.008,67.500 " class="clsss-2"/>
      <path d="M254.699,68.399 L255.301,67.601 L320.301,116.601 L319.699,117.399 L254.699,68.399 " class="clsss-2"/>
      <path d="M253.584,68.277 L254.416,67.723 L320.416,166.723 L319.584,167.277 L253.584,68.277 " class="clsss-2"/>
      <path d="M254.543,68.203 L255.457,67.797 L319.457,211.797 L318.543,212.203 L254.543,68.203 " class="clsss-2"/>
      <path d="M254.524,69.154 L255.476,68.846 L318.476,262.846 L317.524,263.154 L254.524,69.154 " class="clsss-2"/>
      <path d="M256.315,117.389 L255.685,116.611 L318.685,65.611 L319.315,66.389 L256.315,117.389 " class="clsss-2"/>
      <path d="M255.000,117.000 L255.000,116.000 L319.000,116.000 L319.000,117.000 L255.000,117.000 " class="clsss-2"/>
      <path d="M253.699,116.399 L254.301,115.601 L319.301,164.601 L318.699,165.399 L253.699,116.399 " class="clsss-2"/>
      <path d="M254.586,118.280 L255.414,117.720 L320.414,213.720 L319.586,214.280 L254.586,118.280 " class="clsss-2"/>
      <path d="M254.543,119.202 L255.457,118.798 L320.457,265.798 L319.543,266.202 L254.543,119.202 " class="clsss-2"/>
      <path d="M256.422,166.268 L255.578,165.732 L318.578,66.732 L319.422,67.268 L256.422,166.268 " class="clsss-2"/>
      <path d="M255.301,165.399 L254.699,164.601 L319.699,115.601 L320.301,116.399 L255.301,165.399 " class="clsss-2"/>
      <path d="M256.000,165.000 L256.000,164.000 L319.000,164.000 L319.000,165.000 L256.000,165.000 " class="clsss-2"/>
      <path d="M255.696,164.397 L256.304,163.603 L320.304,212.603 L319.696,213.397 L255.696,164.397 " class="clsss-2"/>
      <path d="M256.578,166.268 L257.422,165.732 L320.422,264.732 L319.578,265.269 L256.578,166.268 " class="clsss-2"/>
      <path d="M257.460,213.195 L256.540,212.805 L318.540,66.805 L319.460,67.195 L257.460,213.195 " class="clsss-2"/>
      <path d="M256.418,213.274 L255.582,212.726 L318.582,116.726 L319.418,117.274 L256.418,213.274 " class="clsss-2"/>
      <path d="M257.310,214.392 L256.690,213.608 L318.690,164.608 L319.310,165.392 L257.310,214.392 " class="clsss-2"/>
      <path d="M257.008,214.500 L256.992,213.500 L318.992,212.500 L319.008,213.500 L257.008,214.500 " class="clsss-2"/>
      <path d="M256.689,215.392 L257.311,214.608 L320.311,264.608 L319.689,265.392 L256.689,215.392 " class="clsss-2"/>
      <path d="M258.477,262.151 L257.523,261.849 L319.523,65.849 L320.477,66.151 L258.477,262.151 " class="clsss-2"/>
      <path d="M256.459,263.198 L255.541,262.802 L318.541,116.802 L319.459,117.198 L256.459,263.198 " class="clsss-2"/>
      <path d="M255.417,262.275 L254.583,261.725 L318.583,164.725 L319.417,165.275 L255.417,262.275 " class="clsss-2"/>
      <path d="M256.307,261.395 L255.693,260.605 L318.693,211.605 L319.307,212.395 L256.307,261.395 " class="clsss-2"/>
      <path d="M255.976,262.499 L256.024,261.501 L319.024,264.501 L318.976,265.499 L255.976,262.499 " class="clsss-2"/>
      <path d="M256.484,312.126 L255.516,311.874 L319.516,65.874 L320.484,66.126 L256.484,312.126 " class="clsss-2"/>
      <path d="M256.476,312.154 L255.524,311.846 L318.524,116.846 L319.476,117.154 L256.476,312.154 " class="clsss-2"/>
      <path d="M256.459,313.198 L255.541,312.802 L319.541,164.802 L320.459,165.198 L256.459,313.198 " class="clsss-2"/>
      <path d="M256.424,313.265 L255.576,312.735 L318.576,211.735 L319.424,212.265 L256.424,313.265 " class="clsss-2"/>
      <path d="M256.300,313.400 L255.700,312.600 L319.700,264.600 L320.300,265.400 L256.300,313.400 " class="clsss-2"/>
      <path d="M356.681,68.385 L357.319,67.615 L415.319,115.615 L414.681,116.385 L356.681,68.385 " class="clsss-2"/>
      <path d="M356.569,66.253 L357.431,65.747 L415.431,164.747 L414.569,165.253 L356.569,66.253 " class="clsss-2"/>
      <path d="M355.535,67.183 L356.465,66.816 L414.465,213.816 L413.535,214.184 L355.535,67.183 " class="clsss-2"/>
      <path d="M357.000,116.000 L357.000,115.000 L413.000,115.000 L413.000,116.000 L357.000,116.000 " class="clsss-2"/>
      <path d="M356.678,115.382 L357.322,114.618 L414.322,162.618 L413.678,163.383 L356.678,115.382 " class="clsss-2"/>
      <path d="M355.567,115.251 L356.433,114.749 L414.433,214.749 L413.568,215.251 L355.567,115.251 " class="clsss-2"/>
      <path d="M357.329,165.376 L356.671,164.624 L412.671,115.624 L413.329,116.376 L357.329,165.376 " class="clsss-2"/>
      <path d="M356.008,165.500 L355.992,164.500 L414.992,163.500 L415.009,164.500 L356.008,165.500 " class="clsss-2"/>
      <path d="M354.673,164.378 L355.327,163.622 L415.327,215.622 L414.673,216.378 L354.673,164.378 " class="clsss-2"/>
      <path d="M357.429,213.257 L356.571,212.743 L414.571,115.743 L415.429,116.257 L357.429,213.257 " class="clsss-2"/>
      <path d="M357.315,212.389 L356.685,211.611 L414.685,164.611 L415.315,165.389 L357.315,212.389 " class="clsss-2"/>
      <path d="M356.983,213.500 L357.017,212.500 L415.017,214.500 L414.983,215.500 L356.983,213.500 " class="clsss-2"/>
      <path d="M357.466,263.181 L356.534,262.819 L413.534,115.819 L414.466,116.181 L357.466,263.181 " class="clsss-2"/>
      <path d="M357.430,263.255 L356.570,262.745 L414.570,164.745 L415.430,165.255 L357.430,263.255 " class="clsss-2"/>
      <path d="M357.326,264.379 L356.674,263.621 L413.674,214.621 L414.326,215.379 L357.326,264.379 " class="clsss-2"/>
    </g>
    <g>
      <text x="81" y="76" class="cls-3"><tspan class="cls-4">it</tspan></text>
      <text x="69" y="123" class="cls-3"><tspan class="cls-4">has</tspan></text>
      <text x="78" y="168" class="cls-3"><tspan class="cls-4">...</tspan></text>
      <text x="81" y="220" class="cls-3"><tspan class="cls-4">is</tspan></text>
      <text y="270" class="cls-3"><tspan class="cls-4">scandalous</tspan></text>
    </g>
    <g>
      <text x="476" y="123" class="cls-3"><tspan class="cls-4">Hi, we are deeply sorry ...</tspan></text>
      <text x="476" y="171" class="cls-3"><tspan class="cls-4">Dear customer, we apologize ...</tspan></text>
      <text x="417" y="122" class="cls-5"><tspan class="clsss-6">97%</tspan></text>
      <text x="417" y="170" class="cls-5"><tspan class="clsss-6">91%</tspan></text>
      <text x="417" y="219" class="cls-5"><tspan class="clsss-6">83%</tspan></text>
      <text x="476" y="220" class="cls-3"><tspan class="cls-4">I am very sorry but your ...</tspan></text>
    </g>
  </g>
</svg>
