<svg xmlns="http://www.w3.org/2000/svg" xmlns:xlink="http://www.w3.org/1999/xlink" preserveAspectRatio="xMidYMid" width="859" height="152" viewBox="0 0 859 152">
  <defs>
    <style>
      .cls-1 {
        fill: #fff;
        fill-rule: evenodd;
      }
    </style>
  </defs>
  <path d="M47.349,74.172 C0.763,74.172 -0.000,30.910 -0.000,23.000 C-0.000,15.090 -0.000,-0.000 -0.000,-0.000 L36.000,-0.000 C36.000,-0.000 35.793,19.512 35.793,22.985 C35.793,26.457 37.789,37.604 47.349,37.604 C56.910,37.604 695.402,37.000 757.000,37.000 C818.598,37.000 825.000,77.078 825.000,99.000 C825.000,120.922 825.000,121.000 825.000,121.000 L859.000,121.000 L806.000,152.000 L751.000,121.000 C751.000,121.000 786.016,120.949 786.000,121.000 C785.984,121.051 786.000,117.472 786.000,99.000 C786.000,80.528 775.614,75.000 758.000,75.000 C740.386,75.000 97.197,74.172 47.349,74.172 Z" class="cls-1"/>
</svg>
