<svg xmlns="http://www.w3.org/2000/svg" xmlns:xlink="http://www.w3.org/1999/xlink" preserveAspectRatio="xMidYMid" width="633" height="153" viewBox="0 0 633 153">
  <defs>
    <style>
      .cls-1 {
        fill: #fff;
        fill-rule: evenodd;
      }
    </style>
  </defs>
  <path d="M47.349,75.172 C0.763,75.172 0.000,31.895 0.000,23.985 C0.000,16.074 0.000,-0.000 0.000,-0.000 L36.000,1.000 C36.000,1.000 35.793,20.512 35.793,23.985 C35.793,27.457 37.789,38.604 47.349,38.604 C56.910,38.604 469.402,38.000 531.000,38.000 C592.598,38.000 599.000,78.078 599.000,100.000 C599.000,121.922 599.000,122.000 599.000,122.000 L633.000,122.000 L580.000,153.000 L528.000,122.000 C528.000,122.000 560.016,121.949 560.000,122.000 C559.984,122.051 560.000,118.472 560.000,100.000 C560.000,81.528 547.268,76.000 532.000,76.000 C516.732,76.000 412.096,75.172 47.349,75.172 Z" class="cls-1"/>
</svg>
