<?xml version="1.0" encoding="utf-8"?>
<!-- Generator: Adobe Illustrator 19.0.0, SVG Export Plug-In . SVG Version: 6.00 Build 0)  -->
<svg version="1.1" id="Calque_1" fill="#fe6161" xmlns="http://www.w3.org/2000/svg" xmlns:xlink="http://www.w3.org/1999/xlink" x="0px" y="0px"
	 viewBox="-267 383.9 60 75" style="enable-background:new -267 383.9 60 75;" xml:space="preserve">
<style type="text/css">
	.sssssst0{display:none;fill:#FD5252;}
	.sssssst1{fill:#FD5252;stroke:#FD5252;stroke-miterlimit:10;}
</style>
<rect x="-917" y="132.9" class="sssssst0" width="802" height="805"/>
<g>
	<path class="sssssst1" d="M-211.1,428.1c2.8-5.1,4.1-11,3.5-16.9c-1.2-13.7-11.9-24.8-25.5-26.6c-1.3-0.2-2.6-0.2-3.8-0.2
		c-8.5,0-16.6,3.7-22.2,10c-5.6,6.4-8.2,14.9-7.1,23.4c1.8,13.5,12.9,24.2,26.6,25.4c0.9,0.1,1.8,0.1,2.7,0.1c5,0,9.9-1.3,14.2-3.6
		l13.3,3.4c0.5,0.1,1.1-0.1,1.5-0.5c0.3-0.3,0.4-0.8,0.3-1.2L-211.1,428.1z M-208.8,442c-0.1,0.1-0.3,0.2-0.4,0.1l-13.5-3.4
		c-0.1,0-0.3,0-0.4,0c-4.9,2.8-10.7,4-16.5,3.5c-13.2-1.2-24-11.5-25.7-24.6c-1.1-8.3,1.4-16.3,6.8-22.6c5.4-6.2,13.2-9.7,21.4-9.7
		c1.2,0,2.5,0.1,3.7,0.2c13.1,1.7,23.5,12.4,24.7,25.6c0.5,5.8-0.7,11.5-3.5,16.5c-0.1,0.1-0.1,0.2,0,0.4l3.4,13.5
		C-208.7,441.8-208.8,441.9-208.8,442z"/>
	<path class="sssssst1" d="M-244.9,412.4c0.3,0,0.5-0.2,0.5-0.5v-8.6c0-0.3-0.2-0.5-0.5-0.5s-0.5,0.2-0.5,0.5v8.6
		C-245.4,412.2-245.2,412.4-244.9,412.4z"/>
	<path class="sssssst1" d="M-229.1,412.4c0.3,0,0.5-0.2,0.5-0.5v-8.6c0-0.3-0.2-0.5-0.5-0.5s-0.5,0.2-0.5,0.5v8.6
		C-229.6,412.2-229.3,412.4-229.1,412.4z"/>
	<path class="sssssst1" d="M-226.2,423.2c-3.1,2.4-6.8,3.7-10.8,3.7c-3.9,0-7.7-1.3-10.8-3.7c-0.2-0.2-0.5-0.1-0.7,0.1
		c-0.2,0.2-0.1,0.5,0.1,0.7c3.3,2.5,7.2,3.9,11.4,3.9c4.2,0,8.1-1.3,11.4-3.9c0.2-0.2,0.3-0.5,0.1-0.7
		C-225.7,423-226,423-226.2,423.2z"/>
</g>
</svg>
