<?xml version="1.0" encoding="utf-8"?>
<!-- Generator: Adobe Illustrator 19.0.0, SVG Export Plug-In . SVG Version: 6.00 Build 0)  -->
<svg version="1.1" id="Calque_1" xmlns="http://www.w3.org/2000/svg" xmlns:xlink="http://www.w3.org/1999/xlink" x="0px" y="0px"
	 viewBox="-235 371.1 76.3 75" style="enable-background:new -235 371.1 76.3 75;" xml:space="preserve">
<style type="text/css">
	.st00{fill:#FFFFFF;}
</style>
<g>
	<path class="st00" d="M-223.9,421.3l2.2,1l1.2-2.7l-7-3.2l-3.1,7l2.7,1.2l1.1-2.4c3.8,8.2,10.8,14.6,19.4,17.4l0.9-2.8
		C-214.1,434.3-220.4,428.6-223.9,421.3z"/>
	<path class="st00" d="M-213.1,378l2.3,0.9c-8.3,3.8-14.6,11-17.4,19.8l2.9,0.9c2.5-8,8.3-14.5,15.8-18l-1,2.4l2.8,1.1l2.9-7.1
		l-7.1-2.9L-213.1,378z"/>
	<path class="st00" d="M-222.5,408.9c0-3.1-2.5-5.7-5.7-5.7s-5.7,2.5-5.7,5.7c0,3.1,2.5,5.7,5.7,5.7S-222.5,412-222.5,408.9z
		 M-232.4,408.9c0-2.3,1.9-4.2,4.2-4.2c2.3,0,4.2,1.9,4.2,4.2c0,2.3-1.9,4.2-4.2,4.2C-230.5,413.1-232.4,411.2-232.4,408.9z"/>
	<path class="st00" d="M-197,372.3c-3.1,0-5.7,2.5-5.7,5.7c0,3.1,2.5,5.7,5.7,5.7c3.1,0,5.7-2.5,5.7-5.7
		C-191.3,374.8-193.9,372.3-197,372.3z M-197,382.1c-2.3,0-4.2-1.9-4.2-4.2c0-2.3,1.9-4.2,4.2-4.2s4.2,1.9,4.2,4.2
		C-192.8,380.2-194.7,382.1-197,382.1z"/>
	<path class="st00" d="M-197,434.2c-3.1,0-5.7,2.5-5.7,5.7s2.5,5.7,5.7,5.7c3.1,0,5.7-2.5,5.7-5.7S-193.9,434.2-197,434.2z M-197,444
		c-2.3,0-4.2-1.9-4.2-4.2c0-2.3,1.9-4.2,4.2-4.2s4.2,1.9,4.2,4.2C-192.8,442.1-194.7,444-197,444z"/>
	<path class="st00" d="M-184.5,436l1-2.4l-2.8-1.1l-2.9,7.1l7.1,2.9l1.1-2.8l-2.3-0.9c8.3-3.8,14.6-11,17.4-19.8l-2.9-0.9
		C-171.2,426-177,432.5-184.5,436z"/>
	<path class="st00" d="M-170.1,396.4l-2.2-1l-1.2,2.7l7,3.2l3.1-7l-2.7-1.2l-1.1,2.4c-3.8-8.2-10.8-14.6-19.4-17.4l-0.9,2.8
		C-179.9,383.4-173.6,389.1-170.1,396.4z"/>
	<path class="st00" d="M-165.8,403.1c-3.1,0-5.7,2.5-5.7,5.7c0,3.1,2.5,5.7,5.7,5.7c3.1,0,5.7-2.5,5.7-5.7
		C-160.1,405.7-162.7,403.1-165.8,403.1z M-165.8,413c-2.3,0-4.2-1.9-4.2-4.2c0-2.3,1.9-4.2,4.2-4.2c2.3,0,4.2,1.9,4.2,4.2
		C-161.6,411.1-163.5,413-165.8,413z"/>
</g>
</svg>
