<?xml version="1.0" encoding="utf-8"?>
<!-- Generator: Adobe Illustrator 19.0.0, SVG Export Plug-In . SVG Version: 6.00 Build 0)  -->
<svg version="1.1"
	 id="svg3070" xmlns:dc="http://purl.org/dc/elements/1.1/" xmlns:svg="http://www.w3.org/2000/svg" xmlns:inkscape="http://www.inkscape.org/namespaces/inkscape" xmlns:cc="http://creativecommons.org/ns#" xmlns:rdf="http://www.w3.org/1999/02/22-rdf-syntax-ns#" xmlns:sodipodi="http://sodipodi.sourceforge.net/DTD/sodipodi-0.dtd" sodipodi:docname="New document 4" inkscape:version="0.48.0 r9654"
	 xmlns="http://www.w3.org/2000/svg" xmlns:xlink="http://www.w3.org/1999/xlink" x="0px" y="0px" viewBox="61 381.4 78 79.5"
	 style="enable-background:new 61 381.4 78 79.5;" xml:space="preserve">
<style type="text/css">
	.stt0{fill:#006699;}
	.stt1{fill:#FFFFFF;}
</style>
<sodipodi:namedview  id="base" inkscape:zoom="2.8" bordercolor="#666666" pagecolor="#ffffff" showgrid="false" fit-margin-left="0" fit-margin-top="0" inkscape:cy="33.703355" inkscape:cx="142.93233" borderopacity="1.0" inkscape:window-width="1280" inkscape:document-units="px" inkscape:window-y="-8" fit-margin-bottom="0" inkscape:pageopacity="0.0" inkscape:current-layer="layer1" fit-margin-right="0" inkscape:window-maximized="1" inkscape:window-x="-8" inkscape:pageshadow="2" inkscape:window-height="750">
	</sodipodi:namedview>
<g id="layer1" transform="translate(-200.55198,-393.96227)" inkscape:label="Layer 1" inkscape:groupmode="layer">
	<g id="g3019" transform="matrix(1.018827,0,0,-1.018827,170.5996,498.03288)">
		<path id="path14" inkscape:connector-curvature="0" class="stt0" d="M90.1-279.3c0,3,2.5,5.4,5.5,5.4H159c3,0,5.5-2.4,5.5-5.4
			v-64.1c0-3-2.5-5.4-5.5-5.4H95.6c-3,0-5.5,2.4-5.5,5.4V-279.3z"/>
		<path id="path16" inkscape:connector-curvature="0" d="M-118-336.7h31v10.2h-19.8v38.9H-118C-118-287.6-118-336.7-118-336.7z"/>
		<path id="path18" inkscape:connector-curvature="0" d="M-71.3-336.7v33.8h-11.2v-33.8H-71.3z M-76.9-298.3c3.9,0,6.4,2.6,6.4,5.8
			c-0.1,3.3-2.4,5.8-6.3,5.8c-3.8,0-6.4-2.5-6.4-5.8C-83.2-295.7-80.8-298.3-76.9-298.3L-76.9-298.3L-76.9-298.3z"/>
		<path id="path20" inkscape:connector-curvature="0" d="M-66.1-336.7h11.2v18.9c0,1,0.1,2,0.4,2.7c0.8,2,2.7,4.1,5.8,4.1
			c4.1,0,5.7-3.1,5.7-7.6v-18.1h11.2v19.4c0,10.4-5.5,15.2-12.9,15.2c-6.1,0-8.7-3.4-10.2-5.7h0.1v4.9h-11.2
			C-65.9-306.1-66.1-336.7-66.1-336.7L-66.1-336.7z"/>
		<path id="path22" inkscape:connector-curvature="0" d="M-15.9-287.6h-11.2v-49.1h11.2v11l2.8,3.5l8.8-14.5H9.5l-14.8,21l12.9,14.3
			H-5.9c0,0-9.2-12.8-10-14.3L-15.9-287.6L-15.9-287.6z"/>
		<path id="path24" inkscape:connector-curvature="0" d="M39.5-322.6c0.1,0.9,0.4,2.5,0.4,4.4c0,8.7-4.4,17.6-16.1,17.6
			c-12.5,0-18.3-9.9-18.3-18.8c0-11.1,7-18,19.3-18c4.9,0,9.4,0.7,13.1,2.2l-1.5,7.4c-3-1-6.1-1.5-10-1.5c-5.2,0-9.8,2.2-10.2,6.7
			L39.5-322.6L39.5-322.6z M16.2-315c0.3,2.9,2.2,7.1,7,7.1c5.1,0,6.3-4.5,6.3-7.1H16.2z"/>
		<path id="path26" inkscape:connector-curvature="0" d="M67.6-287.6v-17h-0.1c-1.6,2.4-5,4-9.5,4c-8.6,0-16.3-6.9-16.2-18.7
			c0-11,6.9-18.1,15.4-18.1c4.7,0,9.1,2,11.3,5.9h0.2l0.4-5.1h10c-0.1,2.4-0.3,6.5-0.3,10.5v38.5H67.6L67.6-287.6z M67.6-321
			c0-0.9-0.1-1.7-0.2-2.5c-0.7-3.1-3.3-5.3-6.6-5.3c-4.7,0-7.7,3.7-7.7,9.7c0,5.5,2.6,10,7.8,10c3.5,0,5.9-2.4,6.6-5.3
			c0.1-0.6,0.1-1.4,0.1-2L67.6-321L67.6-321z"/>
		<path id="path28" inkscape:connector-curvature="0" class="stt1" d="M112.7-336.6v33.8h-11.2v-33.8H112.7z M107.1-298.2
			c3.9,0,6.4,2.6,6.4,5.8c-0.1,3.3-2.4,5.8-6.3,5.8c-3.8,0-6.4-2.5-6.4-5.8C100.8-295.6,103.2-298.2,107.1-298.2L107.1-298.2
			L107.1-298.2z"/>
		<path id="path30" inkscape:connector-curvature="0" class="stt1" d="M118.9-336.6h11.2v18.9c0,1,0.1,2,0.4,2.7
			c0.8,2,2.7,4.1,5.8,4.1c4.1,0,5.7-3.1,5.7-7.6v-18.1h11.2v19.4c0,10.4-5.5,15.2-12.9,15.2c-6.1,0-8.7-3.4-10.2-5.7h0.1v4.9h-11.2
			C119-306,118.9-336.6,118.9-336.6L118.9-336.6z"/>
	</g>
</g>
</svg>
