<svg xmlns="http://www.w3.org/2000/svg" xmlns:xlink="http://www.w3.org/1999/xlink" fill="#fff" version="1.1" x="0px" y="0px" viewBox="0 0 100 125" enable-background="new 0 0 100 100" xml:space="preserve"><g><g><path fill-rule="evenodd" clip-rule="evenodd" d="M75.863,18.545c-11.673,0-21.136,9.463-21.136,21.136    c0,11.531,9.235,20.898,20.712,21.127c-5.337,5.232-12.646,8.464-20.712,8.464v12.683C78.073,81.955,97,63.027,97,39.682    C97,28.008,87.536,18.545,75.863,18.545z M25.136,18.545C13.463,18.545,4,28.008,4,39.682c0,11.531,9.235,20.898,20.712,21.127    C19.375,66.041,12.066,69.272,4,69.272v12.683c23.347,0,42.272-18.928,42.272-42.273C46.272,28.008,36.81,18.545,25.136,18.545z"/></g></g></svg>
