<svg xmlns="http://www.w3.org/2000/svg" xmlns:xlink="http://www.w3.org/1999/xlink" fill="#fff" version="1.1" x="0px" y="0px" viewBox="0 0 100 125" enable-background="new 0 0 100 100" xml:space="preserve"><g><g><path fill-rule="evenodd" clip-rule="evenodd" d="M4.5,60.704c0,11.548,9.361,20.909,20.909,20.909    c11.548,0,20.909-9.361,20.909-20.909c0-11.406-9.137-20.673-20.489-20.898c5.279-5.177,12.509-8.375,20.489-8.375V18.886    C23.223,18.886,4.5,37.609,4.5,60.704z M96.5,18.886c-23.095,0-41.818,18.723-41.818,41.818c0,11.548,9.362,20.909,20.909,20.909    c11.548,0,20.909-9.361,20.909-20.909c0-11.406-9.137-20.673-20.489-20.898c5.279-5.177,12.51-8.375,20.489-8.375V18.886z"/></g></g></svg>
