<svg xmlns="http://www.w3.org/2000/svg" fill="#2c9dde" xmlns:xlink="http://www.w3.org/1999/xlink" version="1.1" x="0px" y="0px" viewBox="0 0 100 125" enable-background="new 0 0 100 100" xml:space="preserve"><path d="M93.3,39.3c0.6-1.1,0.7-2.3,0.3-3.5c-0.4-1.2-1.2-2.1-2.3-2.7L81.2,28c-0.3-0.2-0.6-0.5-0.6-0.9l-1.8-11.3  c-0.4-2.2-2.2-3.9-4.5-3.9c-0.2,0-0.5,0-0.7,0.1l-11.3,1.8c-0.4,0.1-0.7-0.1-1-0.3l-8-8.1c-0.9-0.9-2-1.3-3.2-1.3  c-1.2,0-2.4,0.5-3.2,1.3l-8,8.1c-0.2,0.2-0.5,0.3-0.8,0.3c-0.1,0-0.1,0-0.2,0l-11.3-1.8c-0.2,0-0.5-0.1-0.7-0.1  c-2.3,0-4.2,1.6-4.5,3.9l-1.8,11.3c-0.1,0.4-0.3,0.7-0.6,0.9L8.7,33.2c-1.1,0.6-1.9,1.5-2.3,2.7C6,37,6.1,38.2,6.7,39.3l5.2,10.1  c0.2,0.3,0.2,0.7,0,1.1L6.7,60.7C6.1,61.8,6,63,6.4,64.2c0.4,1.2,1.2,2.1,2.3,2.7L18.8,72c0.3,0.2,0.6,0.5,0.6,0.9l1.8,11.3  c0.4,2.2,2.2,3.9,4.5,3.9c0.2,0,0.5,0,0.7-0.1l11.3-1.8c0.4-0.1,0.7,0.1,1,0.3l8,8.1c0.9,0.9,2,1.3,3.2,1.3c1.2,0,2.4-0.5,3.2-1.3  l8-8.1c0.3-0.3,0.6-0.4,1-0.3l11.3,1.8c0.2,0,0.5,0.1,0.7,0.1c2.3,0,4.2-1.6,4.5-3.9l1.8-11.3c0.1-0.4,0.3-0.7,0.6-0.9l10.2-5.2  c1.1-0.6,1.9-1.5,2.3-2.7c0.4-1.2,0.3-2.4-0.3-3.5l-5.2-10.1c-0.2-0.3-0.2-0.7,0-1.1L93.3,39.3z M85.1,52.1l5.2,10.1  c0.1,0.3,0.2,0.6,0.1,0.9c-0.1,0.3-0.3,0.5-0.6,0.7L79.6,69c-1.3,0.7-2.2,1.9-2.4,3.4l-1.8,11.3c-0.1,0.6-0.7,1.1-1.3,1l-11.3-1.8  c-1.4-0.2-2.9,0.3-4,1.3l-8,8.1c-0.4,0.4-1.2,0.4-1.6,0l-8-8.1c-0.9-0.9-2-1.3-3.2-1.3c-0.2,0-0.5,0-0.7,0.1l-11.3,1.8  c-0.6,0.1-1.2-0.3-1.3-1l-1.8-11.3c-0.2-1.4-1.1-2.7-2.4-3.4l-10.2-5.2c-0.3-0.1-0.5-0.4-0.6-0.7c-0.1-0.3-0.1-0.6,0.1-0.9l5.2-10.1  c0.7-1.3,0.7-2.9,0-4.2L9.7,37.8c-0.1-0.3-0.2-0.6-0.1-0.9c0.1-0.3,0.3-0.5,0.6-0.7L20.4,31c1.3-0.7,2.2-1.9,2.4-3.4l1.8-11.3  c0.1-0.6,0.7-1.1,1.3-1l11.3,1.8c0.2,0,0.5,0.1,0.7,0.1c0,0,0,0,0,0c1.2,0,2.4-0.5,3.2-1.3l8-8.1c0.4-0.4,1.2-0.4,1.6,0l8,8.1  c1,1,2.5,1.5,4,1.3l11.3-1.8c0.6-0.1,1.2,0.3,1.3,1l1.8,11.3c0.2,1.4,1.1,2.7,2.4,3.4l10.2,5.2c0.3,0.1,0.5,0.4,0.6,0.7  c0.1,0.3,0.1,0.6-0.1,0.9l-5.2,10.1C84.4,49.2,84.4,50.8,85.1,52.1z M64.7,38.9h-8.5V33c0-3-0.9-5.2-2.7-6.5c-2.7-2-6.3-1-6.7-0.8  c-0.7,0.2-1.2,0.9-1.2,1.6v7.4c0,5.3-6.3,7.2-6.5,7.2c-0.2,0-0.3,0.1-0.5,0.2c-0.6-0.5-1.4-0.8-2.2-0.8h-5.2c-2,0-3.6,1.6-3.6,3.6  v18.2c0,2,1.6,3.6,3.6,3.6h5.2c0.9,0,1.8-0.4,2.4-1c1.1,1,2.6,1.6,4.3,1.6h18c4.3,0,7.1-2.4,7.6-6.3l2.4-15.4c0-0.1,0-0.2,0-0.3  C71.3,41.8,68.3,38.9,64.7,38.9z M36.6,63.2c0,0.1-0.1,0.2-0.2,0.2h-5.2c-0.1,0-0.2-0.1-0.2-0.2V44.9c0-0.1,0.1-0.2,0.2-0.2h5.2  c0.1,0,0.2,0.1,0.2,0.2V63.2z M65.4,60.6C65.4,60.6,65.4,60.7,65.4,60.6C65.3,61.5,65,64,61.2,64h-18c-1.7,0-3.1-1.4-3.1-3.1V45.2  c0,0,0,0,0,0c0.4-0.1,9-2.6,9-10.5v-5.9c0.8-0.1,1.8,0,2.5,0.5c0.9,0.6,1.3,1.9,1.3,3.7v7.6c0,0.9,0.8,1.7,1.7,1.7h10.2  c1.7,0,3.1,1.3,3.1,3L65.4,60.6z"/></svg>
