<?xml version="1.0" encoding="utf-8"?>
<!-- Generator: Adobe Illustrator 19.0.0, SVG Export Plug-In . SVG Version: 6.00 Build 0)  -->
<svg version="1.1" id="Calque_1" xmlns="http://www.w3.org/2000/svg" xmlns:xlink="http://www.w3.org/1999/xlink" x="0px" y="0px"
	 viewBox="-74 296.9 446.4 248" style="enable-background:new -74 296.9 446.4 248;" xml:space="preserve">
<style type="text/css">
	.st0{fill:#FFFFFF;}
	.st1{fill:#4C70B3;}
	.st2{fill:#EE5455;}
	.st3{fill:#D6D6D5;}
	.st4{fill:#231F20;}
	.st5{font-family:'MyriadPro-Regular';}
	.st6{font-size:8px;}
	.st7{fill:none;stroke:#D6D6D6;stroke-width:0.5;stroke-miterlimit:10;}
	.st8{fill:none;}
	.st9{font-family:'Tahoma';}
	.st10{font-size:6.3px;}
	.st11{letter-spacing:4.1;}
	.st12{letter-spacing:1;}
</style>
<rect x="-74" y="296.9" class="st0" width="446.4" height="248"/>
<path class="st1" d="M-59.9,305.2H63.7c1.4,0,2.5,1.1,2.5,2.5v31.4c0,1.4-1.1,2.5-2.5,2.5H-59.9c-1.4,0-2.5-1.1-2.5-2.5v-31.4
	C-62.4,306.3-61.3,305.2-59.9,305.2z"/>
<path class="st1" d="M-66.2,313.2l3.5-3.5l3.5,3.5l-3.5,3.5L-66.2,313.2z"/>
<path class="st1" d="M237.6,477.5h117.7c1.5,0,2.8,1.1,2.8,2.4V516c0,1.3-1.2,2.4-2.8,2.4H237.6c-1.5,0-2.8-1.1-2.8-2.4v-36.1
	C234.8,478.6,236.1,477.5,237.6,477.5z"/>
<path class="st1" d="M353.7,487.8l3.5-3.5l3.5,3.5l-3.5,3.5L353.7,487.8z"/>
<path class="st1" d="M237.6,431.1h117.7c1.5,0,2.8,1.2,2.8,2.8v34.3c0,1.5-1.2,2.8-2.8,2.8H237.6c-1.5,0-2.8-1.2-2.8-2.8v-34.3
	C234.8,432.4,236.1,431.1,237.6,431.1z"/>
<path class="st1" d="M353.7,441.4l3.5-3.5l3.5,3.5l-3.5,3.5L353.7,441.4z"/>
<path class="st2" d="M215.5,438.9c6.7,0,12.2,5.4,12.2,12.2c0,6.7-5.4,12.2-12.2,12.2c-6.7,0-12.2-5.4-12.2-12.2
	C203.3,444.3,208.8,438.9,215.5,438.9z"/>
<path class="st1" d="M237.6,386.4h117.7c1.5,0,2.8,1.2,2.8,2.8v34.3c0,1.5-1.2,2.8-2.8,2.8H237.6c-1.5,0-2.8-1.2-2.8-2.8v-34.3
	C234.8,387.6,236.1,386.4,237.6,386.4z"/>
<path class="st1" d="M353.7,396.6l3.5-3.5l3.5,3.5l-3.5,3.5L353.7,396.6z"/>
<path class="st2" d="M215.5,394.1c6.7,0,12.2,5.4,12.2,12.2c0,6.7-5.4,12.2-12.2,12.2c-6.7,0-12.2-5.4-12.2-12.2
	C203.3,399.6,208.8,394.1,215.5,394.1z"/>
<path class="st2" d="M212.4,325.1h19.9c4.4,0,8,3.6,8,8v0.6c0,4.4-3.6,8-8,8h-19.9c-4.4,0-8-3.6-8-8v-0.6
	C204.4,328.7,208,325.1,212.4,325.1z"/>
<path class="st2" d="M312.4,305.2H355c4.4,0,8,3.6,8,8v0.6c0,4.4-3.6,8-8,8h-42.5c-4.4,0-8-3.6-8-8v-0.6
	C304.4,308.8,308,305.2,312.4,305.2z"/>
<path class="st2" d="M242.8,305.2h46.4c4.4,0,8,3.6,8,8v0.6c0,4.4-3.6,8-8,8h-46.4c-4.4,0-8-3.6-8-8v-0.6
	C234.8,308.8,238.4,305.2,242.8,305.2z"/>
<path class="st3" d="M196.1,352.1v-0.6h176.2v0.6H196.1"/>
<path class="st3" d="M-74,516.2v-0.6h269.6v0.6H-74"/>
<path class="st3" d="M195.6,296.9h0.6v248h-0.6V296.9"/>
<text transform="matrix(1 0 0 1 209.6801 315.213)" class="st4 st5 st6">Tags</text>
<text transform="matrix(1 0 0 1 242.3391 315.7132)" class="st0 st5 st6">Transportation</text>
<text transform="matrix(1 0 0 1 313.5891 316.2131)" class="st0 st5 st6">order 17A42</text>
<text transform="matrix(1 0 0 1 213.5894 335.713)" class="st0 st5 st6">book</text>
<rect x="-74" y="296.9" class="st7" width="446.4" height="248"/>
<path class="st2" d="M215.5,485.8c6.7,0,12.2,5.4,12.2,12.2c0,6.7-5.4,12.2-12.2,12.2c-6.7,0-12.2-5.4-12.2-12.2
	C203.3,491.3,208.8,485.8,215.5,485.8z"/>
<text transform="matrix(1 0 0 1 209.6799 371.2131)" class="st4 st5 st6">Proposed answers</text>
<text transform="matrix(1 0 0 1 208.1805 409.4009)" class="st0 st5 st6">97%</text>
<text transform="matrix(1 0 0 1 208.1801 453.9009)" class="st0 st5 st6">91%</text>
<text transform="matrix(1 0 0 1 208.1813 500.3217)" class="st0 st5 st6">83%</text>
<rect x="241.2" y="391.9" class="st8" width="110" height="29"/>
<text transform="matrix(0.981 0 0 1 241.2422 396.4611)" class="st0 st9 st10">Hi,</text>
<text transform="matrix(0.981 0 0 1 248.6582 396.4611)" class="st0 st9 st10 st11"> </text>
<text transform="matrix(0.981 0 0 1 255.0439 396.4611)" class="st0 st9 st10">we</text>
<text transform="matrix(0.981 0 0 1 262.8721 396.4611)" class="st0 st9 st10 st11"> </text>
<text transform="matrix(0.981 0 0 1 269.2578 396.4611)" class="st0 st9 st10">are</text>
<text transform="matrix(0.981 0 0 1 278.0137 396.4611)" class="st0 st9 st10 st11"> </text>
<text transform="matrix(0.981 0 0 1 284.3994 396.4611)" class="st0 st9 st10">deeply</text>
<text transform="matrix(0.981 0 0 1 302.2178 396.4611)" class="st0 st9 st10 st11"> </text>
<text transform="matrix(0.981 0 0 1 308.6045 396.4611)" class="st0 st9 st10">sorry</text>
<text transform="matrix(0.981 0 0 1 322.2002 396.4611)" class="st0 st9 st10 st11"> </text>
<text transform="matrix(0.981 0 0 1 328.5859 396.4611)" class="st0 st9 st10">for</text>
<text transform="matrix(0.981 0 0 1 336.1055 396.4611)" class="st0 st9 st10 st11"> </text>
<text transform="matrix(0.981 0 0 1 342.4912 396.4611)" class="st0 st9 st10">the </text>
<text transform="matrix(0.981 0 0 1 241.2422 404.4411)" class="st0 st9 st10">inconvinence.</text>
<text transform="matrix(0.981 0 0 1 278.3223 404.4411)" class="st0 st9 st10"> </text>
<text transform="matrix(0.981 0 0 1 281 404.4411)" class="st0 st9 st10">This</text>
<text transform="matrix(0.981 0 0 1 292.2275 404.4411)" class="st0 st9 st10"> </text>
<text transform="matrix(0.981 0 0 1 294.8018 404.4411)" class="st0 st9 st10">item</text>
<text transform="matrix(0.981 0 0 1 306.75 404.4411)" class="st0 st9 st10"> </text>
<text transform="matrix(0.981 0 0 1 309.3252 404.4411)" class="st0 st9 st10">is</text>
<text transform="matrix(0.981 0 0 1 313.4453 404.4411)" class="st0 st9 st10"> </text>
<text transform="matrix(0.981 0 0 1 316.0205 404.4411)" class="st0 st9 st10">not</text>
<text transform="matrix(0.981 0 0 1 324.9814 404.4411)" class="st0 st9 st10"> </text>
<text transform="matrix(0.981 0 0 1 327.5566 404.4411)" class="st0 st9 st10">available </text>
<text transform="matrix(0.981 0 0 1 241.2422 412.4211)" class="st0 st9 st10">anmore.</text>
<text transform="matrix(0.981 0 0 1 263.7988 412.4211)" class="st0 st9 st10 st12"> </text>
<text transform="matrix(0.981 0 0 1 267.9189 412.4211)" class="st0 st9 st10">Would</text>
<text transform="matrix(0.981 0 0 1 285.1201 412.4211)" class="st0 st9 st10 st12"> </text>
<text transform="matrix(0.981 0 0 1 289.2402 412.4211)" class="st0 st9 st10">you</text>
<text transform="matrix(0.981 0 0 1 299.1279 412.4211)" class="st0 st9 st10 st12"> </text>
<text transform="matrix(0.981 0 0 1 303.248 412.4211)" class="st0 st9 st10">like</text>
<text transform="matrix(0.981 0 0 1 312.415 412.4211)" class="st0 st9 st10 st12"> </text>
<text transform="matrix(0.981 0 0 1 316.4326 412.4211)" class="st0 st9 st10">a</text>
<text transform="matrix(0.981 0 0 1 319.7285 412.4211)" class="st0 st9 st10 st12"> </text>
<text transform="matrix(0.981 0 0 1 323.8486 412.4211)" class="st0 st9 st10">refund</text>
<text transform="matrix(0.981 0 0 1 341.5645 412.4211)" class="st0 st9 st10 st12"> </text>
<text transform="matrix(0.981 0 0 1 345.6846 412.4211)" class="st0 st9 st10">or </text>
<text transform="matrix(0.981 0 0 1 241.2422 420.5061)" class="st0 st9 st10">another product?</text>
<rect x="241.2" y="437.4" class="st8" width="110" height="28"/>
<text transform="matrix(0.981 0 0 1 241.2422 441.9612)" class="st0 st9 st10">Dear</text>
<text transform="matrix(0.981 0 0 1 254.1172 441.9612)" class="st0 st9 st10 st12"> </text>
<text transform="matrix(0.981 0 0 1 258.2373 441.9612)" class="st0 st9 st10">customer,</text>
<text transform="matrix(0.981 0 0 1 285.2236 441.9612)" class="st0 st9 st10 st12"> </text>
<text transform="matrix(0.981 0 0 1 289.3428 441.9612)" class="st0 st9 st10">we</text>
<text transform="matrix(0.981 0 0 1 297.1709 441.9612)" class="st0 st9 st10 st12"> </text>
<text transform="matrix(0.981 0 0 1 301.1885 441.9612)" class="st0 st9 st10">apologize</text>
<text transform="matrix(0.981 0 0 1 326.835 441.9612)" class="st0 st9 st10 st12"> </text>
<text transform="matrix(0.981 0 0 1 330.8525 441.9612)" class="st0 st9 st10">for</text>
<text transform="matrix(0.981 0 0 1 338.3711 441.9612)" class="st0 st9 st10 st12"> </text>
<text transform="matrix(0.981 0 0 1 342.4912 441.9612)" class="st0 st9 st10">the </text>
<text transform="matrix(0.981 0 0 1 241.2422 448.9958)" class="st0 st9 st10">delay.</text>
<text transform="matrix(0.981 0 0 1 257.5166 448.9958)" class="st0 st9 st10"> </text>
<text transform="matrix(0.981 0 0 1 259.9883 448.9958)" class="st0 st9 st10">The</text>
<text transform="matrix(0.981 0 0 1 270.2881 448.9958)" class="st0 st9 st10"> </text>
<text transform="matrix(0.981 0 0 1 272.6572 448.9958)" class="st0 st9 st10">transporter</text>
<text transform="matrix(0.981 0 0 1 303.042 448.9958)" class="st0 st9 st10"> </text>
<text transform="matrix(0.981 0 0 1 305.4111 448.9958)" class="st0 st9 st10">had</text>
<text transform="matrix(0.981 0 0 1 315.5049 448.9958)" class="st0 st9 st10"> </text>
<text transform="matrix(0.981 0 0 1 317.9775 448.9958)" class="st0 st9 st10">a</text>
<text transform="matrix(0.981 0 0 1 321.2734 448.9958)" class="st0 st9 st10"> </text>
<text transform="matrix(0.981 0 0 1 323.6426 448.9958)" class="st0 st9 st10">issue</text>
<text transform="matrix(0.981 0 0 1 337.3408 448.9958)" class="st0 st9 st10"> </text>
<text transform="matrix(0.981 0 0 1 339.71 448.9958)" class="st0 st9 st10">with </text>
<text transform="matrix(0.981 0 0 1 241.2422 455.926)" class="st0 st9 st10">the</text>
<text transform="matrix(0.981 0 0 1 249.9971 455.926)" class="st0 st9 st10"> </text>
<text transform="matrix(0.981 0 0 1 251.8516 455.926)" class="st0 st9 st10">order,</text>
<text transform="matrix(0.981 0 0 1 268.2285 455.926)" class="st0 st9 st10"> </text>
<text transform="matrix(0.981 0 0 1 270.082 455.926)" class="st0 st9 st10">you</text>
<text transform="matrix(0.981 0 0 1 279.9707 455.926)" class="st0 st9 st10"> </text>
<text transform="matrix(0.981 0 0 1 281.7217 455.926)" class="st0 st9 st10">should</text>
<text transform="matrix(0.981 0 0 1 299.6436 455.926)" class="st0 st9 st10"> </text>
<text transform="matrix(0.981 0 0 1 301.3945 455.926)" class="st0 st9 st10">now</text>
<text transform="matrix(0.981 0 0 1 312.8271 455.926)" class="st0 st9 st10"> </text>
<text transform="matrix(0.981 0 0 1 314.6816 455.926)" class="st0 st9 st10">recieve</text>
<text transform="matrix(0.981 0 0 1 334.0449 455.926)" class="st0 st9 st10"> </text>
<text transform="matrix(0.981 0 0 1 335.7959 455.926)" class="st0 st9 st10">it</text>
<text transform="matrix(0.981 0 0 1 339.2979 455.926)" class="st0 st9 st10"> </text>
<text transform="matrix(0.981 0 0 1 341.1523 455.926)" class="st0 st9 st10">in</text>
<text transform="matrix(0.981 0 0 1 345.9932 455.926)" class="st0 st9 st10"> </text>
<text transform="matrix(0.981 0 0 1 347.8477 455.926)" class="st0 st9 st10">3 </text>
<text transform="matrix(0.981 0 0 1 241.2422 462.9612)" class="st0 st9 st10">days.</text>
<rect x="241.2" y="484.3" class="st8" width="110" height="34.2"/>
<text transform="matrix(0.981 0 0 1 241.2422 488.8029)" class="st0 st9 st10">I</text>
<text transform="matrix(0.981 0 0 1 243.5078 488.8029)" class="st0 st9 st10"> </text>
<text transform="matrix(0.981 0 0 1 246.3926 488.8029)" class="st0 st9 st10">am</text>
<text transform="matrix(0.981 0 0 1 254.8379 488.8029)" class="st0 st9 st10"> </text>
<text transform="matrix(0.981 0 0 1 257.6191 488.8029)" class="st0 st9 st10">very</text>
<text transform="matrix(0.981 0 0 1 269.2578 488.8029)" class="st0 st9 st10"> </text>
<text transform="matrix(0.981 0 0 1 272.1426 488.8029)" class="st0 st9 st10">sorry</text>
<text transform="matrix(0.981 0 0 1 285.7383 488.8029)" class="st0 st9 st10"> </text>
<text transform="matrix(0.981 0 0 1 288.6221 488.8029)" class="st0 st9 st10">but</text>
<text transform="matrix(0.981 0 0 1 297.583 488.8029)" class="st0 st9 st10"> </text>
<text transform="matrix(0.981 0 0 1 300.3643 488.8029)" class="st0 st9 st10">your</text>
<text transform="matrix(0.981 0 0 1 312.5186 488.8029)" class="st0 st9 st10"> </text>
<text transform="matrix(0.981 0 0 1 315.2988 488.8029)" class="st0 st9 st10">package</text>
<text transform="matrix(0.981 0 0 1 337.8564 488.8029)" class="st0 st9 st10"> </text>
<text transform="matrix(0.981 0 0 1 340.6377 488.8029)" class="st0 st9 st10">was </text>
<text transform="matrix(0.981 0 0 1 241.2422 495.8377)" class="st0 st9 st10">sent</text>
<text transform="matrix(0.981 0 0 1 252.7783 495.8377)" class="st0 st9 st10"> </text>
<text transform="matrix(0.981 0 0 1 254.5293 495.8377)" class="st0 st9 st10">back</text>
<text transform="matrix(0.981 0 0 1 267.0957 495.8377)" class="st0 st9 st10"> </text>
<text transform="matrix(0.981 0 0 1 268.9492 495.8377)" class="st0 st9 st10">to</text>
<text transform="matrix(0.981 0 0 1 274.3057 495.8377)" class="st0 st9 st10"> </text>
<text transform="matrix(0.981 0 0 1 276.1592 495.8377)" class="st0 st9 st10">us</text>
<text transform="matrix(0.981 0 0 1 282.3389 495.8377)" class="st0 st9 st10"> </text>
<text transform="matrix(0.981 0 0 1 284.0898 495.8377)" class="st0 st9 st10">because</text>
<text transform="matrix(0.981 0 0 1 306.3379 495.8377)" class="st0 st9 st10"> </text>
<text transform="matrix(0.981 0 0 1 308.0889 495.8377)" class="st0 st9 st10">the</text>
<text transform="matrix(0.981 0 0 1 316.8438 495.8377)" class="st0 st9 st10"> </text>
<text transform="matrix(0.981 0 0 1 318.6982 495.8377)" class="st0 st9 st10">adresse</text>
<text transform="matrix(0.981 0 0 1 339.6074 495.8377)" class="st0 st9 st10"> </text>
<text transform="matrix(0.981 0 0 1 341.3584 495.8377)" class="st0 st9 st10">you </text>
<text transform="matrix(0.981 0 0 1 241.2422 502.7678)" class="st0 st9 st10">gave</text>
<text transform="matrix(0.981 0 0 1 254.2207 502.7678)" class="st0 st9 st10 st12"> </text>
<text transform="matrix(0.981 0 0 1 258.0312 502.7678)" class="st0 st9 st10">us</text>
<text transform="matrix(0.981 0 0 1 264.3145 502.7678)" class="st0 st9 st10 st12"> </text>
<text transform="matrix(0.981 0 0 1 268.125 502.7678)" class="st0 st9 st10">was</text>
<text transform="matrix(0.981 0 0 1 278.7344 502.7678)" class="st0 st9 st10 st12"> </text>
<text transform="matrix(0.981 0 0 1 282.5449 502.7678)" class="st0 st9 st10">incorrect.</text>
<text transform="matrix(0.981 0 0 1 308.0889 502.7678)" class="st0 st9 st10 st12"> </text>
<text transform="matrix(0.981 0 0 1 311.9004 502.7678)" class="st0 st9 st10">Please</text>
<text transform="matrix(0.981 0 0 1 329.2041 502.7678)" class="st0 st9 st10 st12"> </text>
<text transform="matrix(0.981 0 0 1 333.1182 502.7678)" class="st0 st9 st10">tell</text>
<text transform="matrix(0.981 0 0 1 341.2549 502.7678)" class="st0 st9 st10 st12"> </text>
<text transform="matrix(0.981 0 0 1 345.0664 502.7678)" class="st0 st9 st10">us </text>
<text transform="matrix(0.981 0 0 1 241.2422 509.803)" class="st0 st9 st10">where we can reach you?</text>
<rect x="-57.3" y="311.4" class="st8" width="119.1" height="28"/>
<text transform="matrix(0.981 0 0 1 -57.2578 315.9612)" class="st0 st9 st10">It’s been 15 days that I bought a book on </text>
<text transform="matrix(0.981 0 0 1 -57.2578 322.9958)" class="st0 st9 st10">your platform (order number 17A32). I still</text>
<text transform="matrix(0.981 0 0 1 -57.2578 329.926)" class="st0 st9 st10">haven’t revieced anything yet. </text>
<text transform="matrix(0.981 0 0 1 -57.2578 336.9612)" class="st0 st9 st10">It is scandalous!</text>
<text transform="matrix(1 0 0 1 -61.4244 533.2343)" class="st3 st5 st6">Type a message...</text>
</svg>
