<svg xmlns="http://www.w3.org/2000/svg" fill="#fe6161" xmlns:xlink="http://www.w3.org/1999/xlink" version="1.1" x="0px" y="0px" viewBox="0 0 100 125" enable-background="new 0 0 100 100" xml:space="preserve"><g transform="translate(0.000000,2000.000000) scale(0.100000,-0.100000)"><path fill="#fd5252" d="M475.645,19999.5c-99.121-4.658-195.566-39.414-274.805-98.896c-21.328-15.996-34.57-27.48-54.287-47.139   c-14.658-14.619-24.209-25.254-35.371-39.053c-54.229-67.061-90.205-146.797-104.287-231.104   c-20.811-125.41,5.781-252.197,75.322-357.9c19.648-30.01,41.201-56.172,67.51-81.982c93.74-92.207,218.74-143.379,350.273-143.379   c114.707,0,225.195,39.062,314.355,111.191c24.766,20.029,52.109,47.217,72.363,71.885c38.535,46.973,68.896,101.992,87.93,159.375   c31.68,95.41,33.73,199.814,5.781,296.553c-18.418,63.545-49.727,123.584-91.611,175.361   c-20.859,25.85-48.613,53.613-74.629,74.639c-89.59,72.432-201.006,111.553-316.201,110.938   C490.273,19999.988,480.293,19999.734,475.645,19999.5z M518.379,19970.555c110.576-4.727,211.396-45.352,294.434-118.574   c9.57-8.457,32.031-30.947,40.635-40.781c93.105-106.514,133.213-244.658,111.611-385   c-14.57-94.746-60.088-185.361-128.008-254.707c-60.293-61.66-134.102-104.893-216.211-126.562   c-88.691-23.467-183.389-20.518-270.352,8.574c-35.586,11.865-71.494,29.053-103.809,49.688   c-51.543,32.852-97.178,76.543-132.686,127.285c-40.664,57.793-68.447,126.855-79.033,195.723   c-14.941,97.08-0.654,193.252,41.602,279.844c30.898,63.301,74.482,117.627,129.619,161.982   C293.945,19938.436,406.299,19975.35,518.379,19970.555z"/><path fill="#fd5252" d="M492.891,19860.027c-3.301-1.67-5.684-4.434-6.953-7.744c-0.527-1.27-0.635-44.248-0.635-177.344   l-0.039-175.635l1.426-3.086c1.602-3.35,3.662-5.381,7.246-7.012l2.217-1.064h121.738c104.385,0,122.051,0.098,124.248,0.723   c3.35,1.006,7.871,5.303,9.014,8.887c2.49,7.158-1.025,15.029-7.891,18.154l-2.695,1.27l-113.086,0.127l-113.193,0.117   l-0.078,166.895l-0.225,166.855l-1.182,2.129c-2.949,5.566-7.148,8.252-13.008,8.252   C496.728,19861.551,495.527,19861.336,492.891,19860.027z"/></g></svg>
