<?xml version="1.0" encoding="utf-8"?>
<!-- Generator: Adobe Illustrator 19.0.0, SVG Export Plug-In . SVG Version: 6.00 Build 0)  -->
<svg version="1.1"
	 id="svg2" xmlns:dc="http://purl.org/dc/elements/1.1/" xmlns:cc="http://creativecommons.org/ns#" xmlns:rdf="http://www.w3.org/1999/02/22-rdf-syntax-ns#"
	 xmlns="http://www.w3.org/2000/svg" xmlns:xlink="http://www.w3.org/1999/xlink" x="0px" y="0px" viewBox="-206 330.7 182.3 179"
	 style="enable-background:new -206 330.7 182.3 179;" xml:space="preserve">
<style type="text/css">
	.st0{clip-path:url(#SVGID_2_);}
	.st1{fill:#55ACEE;}
</style>
<g id="g10" transform="matrix(1.3333 0 0 -1.3333 0 150.67)">
	<g id="g12" transform="scale(.1)">
		<g id="g14">
			<g>
				<defs>
					<rect id="SVGID_1_" x="-952.7" y="-2098.6" width="179.2" height="145.6"/>
				</defs>
				<clipPath id="SVGID_2_">
					<use xlink:href="#SVGID_1_"  style="overflow:visible;"/>
				</clipPath>
				<g id="g16" class="st0">
					<path id="path22" class="st1" d="M-191.2-1609.1c-49.4-21.9-102.6-36.8-158.3-43.4c56.9,34.1,100.6,88.2,121.2,152.5
						c-53.3-31.6-112.3-54.5-175.1-66.9c-50.3,53.6-121.9,87.1-201.2,87.1c-152.3,0-275.7-123.4-275.7-275.7
						c0-21.6,2.4-42.7,7.1-62.8c-229.1,11.5-432.3,121.3-568.3,288.1c-23.7-40.7-37.3-88.1-37.3-138.6c0-95.7,48.7-180,122.7-229.5
						c-45.2,1.4-87.7,13.8-124.9,34.5c0-1.2,0-2.3,0-3.5c0-133.6,95-245,221.2-270.4c-23.1-6.3-47.5-9.6-72.6-9.6
						c-17.8,0-35,1.7-51.9,4.9c35.1-109.5,136.9-189.2,257.6-191.5c-94.4-74-213.3-118-342.5-118c-22.2,0-44.2,1.3-65.8,3.8
						c122.1-78.2,267-123.9,422.7-123.9c507.1,0,784.4,420.1,784.4,784.4c0,11.9-0.3,23.8-0.8,35.6
						C-275-1712.9-228.2-1664.4-191.2-1609.1"/>
				</g>
			</g>
		</g>
	</g>
</g>
</svg>
